{"title":"Bleach Season 1 Complete 480p x265 Eng Dubbed Download","magnet":"magnet:?xt=urn:btih:86a6211c9e86652da33f76a15e576f1aeaceed69&dn=Bleach+Season+1+Complete+480p+x265+Eng+Dubbed+Download&tr=udp%3A%2F%2Ftracker.leechers-paradise.org%3A6969&tr=udp%3A%2F%2Fzer0day.ch%3A1337&tr=udp%3A%2F%2Fopen.demonii.com%3A1337&tr=udp%3A%2F%2Ftracker.coppersurfer.tk%3A6969&tr=udp%3A%2F%2Fexodus.desync.com%3A6969","uploader":"Browse digimaza","categoryP":"video","categoryS":"other","size":"1187971311","seeders":"2","leechers":"6","description":"Bleach Season 1 Complete 480p x265 Eng Dubbed Download <a href=\"\nhttps://s29.postimg.org/66a9wrizr/bleach_season_1.jpg\" rel=\"nofollow\" target=\"_NEW\">\nhttps://s29.postimg.org/66a9wrizr/bleach_season_1.jpg</a>\r\n\r\nBleach is an action anime series. The show revolves around Ichigo Kurosaki, a good-hearted 15-year-old high school student who carries the undesired ability to see spirits. Others in his family (two sisters and his father) carry this ability to some extent as well. One evening, he encounters Rukia Kuchiki; a Shinigami, or Death God. It is her job to usher lost spirits to Soul Society, and to also eliminate those which cross over from the Hollow World.\r\n\r\n..::File Specs::.. \r\n\r\nGeneral \r\n\r\nFormat : Matroska \r\nFormat version : Version 4 / Version 2 \r\nFile size : 53.5 MiB \r\nDuration : 22 min 59 s \r\nOverall bit rate : 325 kb/s \r\n\r\nVideo \r\nID : 1 \r\nFormat : HEVC \r\nFormat/Info : High Efficiency Video Coding \r\nFormat profile : Main <a class=\"__cf_email__\" href=\"/cdn-cgi/l/email-protection\" data-cfemail=\"546564141867\">[email&#xA0;protected]</a><script data-cfhash=\"f9e31\" type=\"text/javascript\">/* <![CDATA[ */!function(t,e,r,n,c,a,p){try{t=document.currentScript||function(){for(t=document.getElementsByTagName('script'),e=t.length;e--;)if(t[e].getAttribute('data-cfhash'))return t[e]}();if(t&&(c=t.previousSibling)){p=t.parentNode;if(a=c.getAttribute('data-cfemail')){for(e='',r='0x'+a.substr(0,2)|0,n=2;a.length-n;n+=2)e+='%'+('0'+('0x'+a.substr(n,2)^r).toString(16)).slice(-2);p.replaceChild(document.createTextNode(decodeURIComponent(e)),c)}p.removeChild(t)}}catch(u){}}()/* ]]> */</script>@Main \r\nCodec ID : V_MPEGH/ISO/HEVC \r\nDuration : 22 min 59 s \r\nBit rate : 293 kb/s \r\nWidth : 720 pixels \r\nHeight : 480 pixels \r\nDisplay aspect ratio : 4:3 \r\nFrame rate mode : Constant \r\nFrame rate : 23.976 (24000/1001) FPS \r\nOriginal frame rate : 23.976 (23976/1000) FPS \r\nColor space : YUV \r\nChroma subsampling : 4:2:0 \r\nBit depth : 10 bits \r\nBits/(Pixel*Frame) : 0.035 \r\nStream size : 48.1 MiB (90%) \r\n\r\nAudio \r\nID : 2 \r\nFormat : AAC \r\nFormat/Info : Advanced Audio Codec \r\nFormat profile : HE-AAC / LC \r\nCodec ID : A_AAC \r\nDuration : 22 min 59 s \r\nBit rate : 30.4 kb/s \r\nChannel(s) : 2 channels \r\nChannel positions : Front: L R \r\nSampling rate : 48.0 kHz / 24.0 kHz \r\nFrame rate : 23.438 FPS (1024 spf) \r\nCompression mode : Lossy \r\nDelay relative to video : 31 ms \r\nStream size : 5.01 MiB (9%) \r\nTitle : Track 1 \r\n\r\nText #1 \r\nID : 3 \r\nFormat : ASS \r\nCodec ID : S_TEXT/ASS \r\nCodec ID/Info : Advanced Sub Station Alpha \r\nDuration : 22 min 38 s \r\nBit rate : 13 b/s \r\nCount of elements : 30 \r\nCompression mode : Lossless \r\nStream size : 2.26 KiB (0%) \r\nTitle : Signs/Songs Sub \r\nWriting library : Lavc56.0.100 ass \r\nLanguage : English \r\n\r\nText #2 \r\nID : 4 \r\nFormat : ASS \r\nCodec ID : S_TEXT/ASS \r\nCodec ID/Info : Advanced Sub Station Alpha \r\nDuration : 22 min 53 s \r\nBit rate : 88 b/s \r\nCount of elements : 276 \r\nCompression mode : Lossless \r\nStream size : 14.9 KiB (0%) \r\nTitle : Full English Sub \r\nWriting library : Lavc56.0.100 ass \r\nLanguage : English \r\n\r\nText #3 \r\nID : 5 \r\nFormat : ASS \r\nCodec ID : S_TEXT/ASS \r\nCodec ID/Info : Advanced Sub Station Alpha \r\nDuration : 22 min 53 s \r\nBit rate : 77 b/s \r\nCount of elements : 276 \r\nCompression mode : Lossless \r\nStream size : 12.9 KiB (0%) \r\nTitle : Subtitles SRT \r\nWriting library : Lavc56.0.100 ass \r\nLanguage : English \r\n\r\n..::ScreenShots::.. \r\n <a href=\"\nhttp://i.imgur.com/VLDrmjd.png\" rel=\"nofollow\" target=\"_NEW\">\nhttp://i.imgur.com/VLDrmjd.png</a>  <a href=\"\nhttp://i.imgur.com/8oglNzu.png\" rel=\"nofollow\" target=\"_NEW\">\nhttp://i.imgur.com/8oglNzu.png</a>  <a href=\"\nhttp://i.imgur.com/5dWgQ2V.png\" rel=\"nofollow\" target=\"_NEW\">\nhttp://i.imgur.com/5dWgQ2V.png</a> \r\n\r\n================================================================ \r\nSeed Seed Seed Seed Seed Seed Seed Seed Seed Seed Seed Seed Seed \r\nIf You Like Our Work For You, Consider a BTC Donation. \r\n1QDS1uDYov85ZdJeWyxYH4ttXoYvPEyaxe \r\n================================================================","last_updated":"2017-04-25T12:47:40.019Z","parsed":{"xt":"urn:btih:86a6211c9e86652da33f76a15e576f1aeaceed69","dn":"Bleach Season 1 Complete 480p x265 Eng Dubbed Download","tr":["udp://exodus.desync.com:6969","udp://open.demonii.com:1337","udp://tracker.coppersurfer.tk:6969","udp://tracker.leechers-paradise.org:6969","udp://zer0day.ch:1337"],"infoHash":"86a6211c9e86652da33f76a15e576f1aeaceed69","infoHashBuffer":{"type":"Buffer","data":[134,166,33,28,158,134,101,45,163,63,118,161,94,87,111,26,234,206,237,105]},"name":"Bleach Season 1 Complete 480p x265 Eng Dubbed Download","announce":["udp://exodus.desync.com:6969","udp://open.demonii.com:1337","udp://tracker.coppersurfer.tk:6969","udp://tracker.leechers-paradise.org:6969","udp://zer0day.ch:1337"],"urlList":[]}}